<svg width="160" height="160" viewBox="0 0 160 160" xmlns="http://www.w3.org/2000/svg">
  <defs>
    <linearGradient id="ibun" x1="0" y1="0" x2="0" y2="1">
      <stop offset="0" stop-color="#FFFDF8"/>
      <stop offset="1" stop-color="#F3EBDA"/>
    </linearGradient>
    <radialGradient id="icheek" cx="0.5" cy="0.5" r="0.5">
      <stop offset="0" stop-color="#F7B5A6"/>
      <stop offset="1" stop-color="#F7B5A6" stop-opacity="0"/>
    </radialGradient>
  </defs>
  <rect width="160" height="160" rx="38" fill="#0E5C4A"/>
  <!-- steam -->
  <g stroke="#7FB9A4" stroke-width="4.5" stroke-linecap="round" fill="none" opacity="0.85">
    <path d="M58,40 q-7,-11 0,-20 q7,-9 0,-18"/>
    <path d="M80,34 q-7,-11 0,-20 q7,-9 0,-18"/>
    <path d="M102,40 q-7,-11 0,-20 q7,-9 0,-18"/>
  </g>
  <!-- bun -->
  <circle cx="80" cy="92" r="50" fill="url(#ibun)" stroke="#E6D9BE" stroke-width="2.5"/>
  <g fill="none" stroke="#E0CFA8" stroke-width="2.5" stroke-linecap="round">
    <path d="M46,62 q8,-11 17,-16"/>
    <path d="M80,52 l0,-12"/>
    <path d="M114,62 q-8,-11 -17,-16"/>
  </g>
  <circle cx="54" cy="104" r="11" fill="url(#icheek)"/>
  <circle cx="106" cy="104" r="11" fill="url(#icheek)"/>
  <path d="M52,86 q7,9 14,0" fill="none" stroke="#3A2E22" stroke-width="4.5" stroke-linecap="round"/>
  <path d="M94,86 q7,9 14,0" fill="none" stroke="#3A2E22" stroke-width="4.5" stroke-linecap="round"/>
  <path d="M67,106 q13,15 26,0" fill="none" stroke="#3A2E22" stroke-width="4.5" stroke-linecap="round"/>
</svg>
